<?xml version="1.0" encoding="iso-8859-1"?>
<!-- Generator: Adobe Illustrator 19.0.0, SVG Export Plug-In . SVG Version: 6.00 Build 0)  -->
<svg xmlns="http://www.w3.org/2000/svg" xmlns:xlink="http://www.w3.org/1999/xlink" version="1.1" id="Layer_1" x="0px" y="0px" viewBox="0 0 490.667 490.667" style="enable-background:new 0 0 490.667 490.667;" xml:space="preserve" width="512px" height="512px">
<g>
	<g>
		<g>
			<path d="M117.333,64H74.667C68.267,64,64,68.267,64,74.667v64c0,6.4,4.267,10.667,10.667,10.667h42.667     c6.4,0,10.667-4.267,10.667-10.667v-64C128,68.267,123.733,64,117.333,64z M106.667,128H85.333V85.333h21.333V128z" fill="#949494"/>
			<path d="M185.6,192c-4.267-2.133-8.533,0-10.667,2.133L153.6,215.467c-4.267,4.267-4.267,10.667,0,14.934     c4.267,4.267,10.667,4.267,14.934,0l2.133-2.133v38.4c0,6.4,4.267,10.667,10.667,10.667c6.4,0,10.667-4.267,10.667-10.667v-64     C192,198.4,189.867,194.133,185.6,192z" fill="#949494"/>
			<path d="M437.333,0h-384C23.467,0,0,23.467,0,53.333V352c0,29.867,23.467,53.333,53.333,53.333h160v21.333h-74.667     c-29.867,0-53.333,23.467-53.333,53.333c0,6.4,4.267,10.667,10.667,10.667h298.667c6.4,0,10.667-4.267,10.667-10.667     c0-2.133,0-2.133,0-4.267C403.2,448,379.733,426.667,352,426.667h-74.667v-21.333h160c29.867,0,53.333-23.467,53.333-53.333     V53.333C490.667,23.467,467.2,0,437.333,0z M469.333,320h-448V53.333c0-17.066,14.934-32,32-32h384c17.066,0,32,14.934,32,32V320     z" fill="#949494"/>
			<path d="M117.333,192H74.667C68.267,192,64,196.267,64,202.667v64c0,6.4,4.267,10.667,10.667,10.667h42.667     c6.4,0,10.667-4.267,10.667-10.667v-64C128,196.267,123.733,192,117.333,192z M106.667,256H85.333v-42.667h21.333V256z" fill="#949494"/>
			<path d="M334.934,64c-4.267-2.133-8.533,0-10.667,2.133l-21.333,21.333c-4.267,4.267-4.267,10.667,0,14.934     c4.267,4.267,10.667,4.267,14.934,0l2.133-2.133v38.4c0,6.4,4.267,10.667,10.667,10.667c6.4,0,10.667-4.267,10.667-10.667v-64     C341.333,70.4,339.2,66.133,334.934,64z" fill="#949494"/>
			<path d="M213.333,74.667c0-6.4-4.267-10.667-10.667-10.667H160c-6.4,0-10.667,4.267-10.667,10.667v64     c0,6.4,4.267,10.667,10.667,10.667h42.667c6.4,0,10.667-4.267,10.667-10.667V74.667z M192,128h-21.333V85.333H192V128z" fill="#949494"/>
			<path d="M270.934,64c-4.267-2.133-8.533,0-10.667,2.133l-21.333,21.333c-4.267,4.267-4.267,10.667,0,14.934     c4.267,4.267,10.667,4.266,14.933,0l2.133-2.133v38.4c0,6.4,4.267,10.667,10.667,10.667c6.4,0,10.667-4.267,10.667-10.667v-64     C277.333,70.4,275.2,66.133,270.934,64z" fill="#949494"/>
			<path d="M416,192h-42.667c-6.4,0-10.667,4.267-10.667,10.667v64c0,6.4,4.267,10.667,10.667,10.667H416     c6.4,0,10.667-4.267,10.667-10.667v-64C426.667,196.267,422.4,192,416,192z M405.333,256H384v-42.667h21.333V256z" fill="#949494"/>
			<path d="M334.934,192c-4.267-2.133-8.533,0-10.667,2.133l-21.333,21.333c-4.267,4.267-4.267,10.667,0,14.934     c4.267,4.267,10.667,4.267,14.934,0l2.133-2.133v38.4c0,6.4,4.267,10.667,10.667,10.667c6.4,0,10.667-4.267,10.667-10.667v-64     C341.333,198.4,339.2,194.133,334.934,192z" fill="#949494"/>
			<path d="M266.667,192H224c-6.4,0-10.667,4.267-10.667,10.667v64c0,6.4,4.267,10.667,10.667,10.667h42.667     c6.4,0,10.667-4.267,10.667-10.667v-64C277.333,196.267,273.066,192,266.667,192z M256,256h-21.333v-42.667H256V256z" fill="#949494"/>
			<path d="M416,64h-42.667c-6.4,0-10.667,4.267-10.667,10.667v64c0,6.4,4.267,10.667,10.667,10.667H416     c6.4,0,10.667-4.267,10.667-10.667v-64C426.667,68.267,422.4,64,416,64z M405.333,128H384V85.333h21.333V128z" fill="#949494"/>
		</g>
	</g>
</g>
<g>
</g>
<g>
</g>
<g>
</g>
<g>
</g>
<g>
</g>
<g>
</g>
<g>
</g>
<g>
</g>
<g>
</g>
<g>
</g>
<g>
</g>
<g>
</g>
<g>
</g>
<g>
</g>
<g>
</g>
</svg>
